<svg width="42" height="45" viewBox="0 0 42 45" fill="none" xmlns="http://www.w3.org/2000/svg">
<path fill-rule="evenodd" clip-rule="evenodd" d="M6.44174 17.6709H11.4417V13.8514H6C3.79086 13.8514 2 15.6423 2 17.8514V39.6709C2 41.3278 3.34315 42.6709 5 42.6709H36.4417C38.0986 42.6709 39.4417 41.3278 39.4417 39.6709V22.6709C39.4417 21.014 38.0986 19.6709 36.4417 19.6709H6.44174V17.6709ZM23.1508 17.6709H13.4417V3.6709C13.4417 3.11861 13.8895 2.6709 14.4417 2.6709H24.4417C24.994 2.6709 25.4417 3.11861 25.4417 3.6709V12.0503H25.5261L23.1508 17.6709ZM25.3221 17.6709H35.7483L38.8746 10.7324L38.9056 10.6554C39.0899 10.1347 38.8172 9.56327 38.2966 9.37896L30.947 6.77694C30.4482 6.60034 29.8981 6.84291 29.6921 7.33033L25.3221 17.6709ZM37.8512 17.8723C39.9263 18.4808 41.4417 20.3989 41.4417 22.6709V39.6709C41.4417 42.4323 39.2032 44.6709 36.4417 44.6709H5C2.23858 44.6709 0 42.4323 0 39.6709V17.8514C0 14.5377 2.68629 11.8514 6 11.8514H11.4417V3.6709C11.4417 2.01404 12.7849 0.670898 14.4417 0.670898H24.4417C26.0986 0.670898 27.4417 2.01404 27.4417 3.6709V7.51751L27.8499 6.55178C28.4678 5.08952 30.118 4.36181 31.6144 4.8916L38.9641 7.49362C40.526 8.04657 41.3438 9.76097 40.7909 11.3228C40.7632 11.4012 40.7322 11.4783 40.6981 11.554L37.8512 17.8723Z" fill="white"/>
</svg>
