<svg width="34" height="42" viewBox="0 0 34 42" fill="none" xmlns="http://www.w3.org/2000/svg">
<path d="M23.499 4.88665L23.4912 24.4997L25.2412 24.5007L25.25 4.96122C25.25 2.54469 23.2909 0.585954 20.8745 0.587281H5.125C2.70875 0.587281 0.75 2.54603 0.75 4.96228V37.625C0.75 40.0412 2.70875 42 5.125 42L20.8915 41.9991C23.3073 41.9515 25.2271 39.9546 25.1795 37.5388L25.0762 34.0436L23.3265 34.0781L23.4299 37.5733C23.4574 38.971 22.3873 40.135 21.0112 40.242L20.8054 40.25H5.125C3.67525 40.25 2.5 39.0747 2.5 37.625V4.96228C2.5 3.51253 3.67525 2.33728 5.125 2.33728H20.875C22.2999 2.3365 23.4595 3.47135 23.499 4.88665Z" fill="#E9271D"/>
<path fill-rule="evenodd" clip-rule="evenodd" d="M30.7843 30.0377L27.875 33.6743L29.2415 34.7675L33.7254 29.1627L29.2415 23.5578L27.875 24.651L30.7843 28.2877H8.62548L8.625 30.0377H30.7843ZM31.418 29.2456L31.4843 29.1627L31.418 29.0797V29.2456Z" fill="#E9271D"/>
</svg>
