<svg width="36" height="39" viewBox="0 0 36 39" fill="none" xmlns="http://www.w3.org/2000/svg">
<path fill-rule="evenodd" clip-rule="evenodd" d="M18.125 0.125C21.0245 0.125 23.375 2.47551 23.375 5.375V7.125H21.625V5.375C21.625 3.442 20.058 1.875 18.125 1.875C16.192 1.875 14.625 3.442 14.625 5.375V11.3702H30.7615C33.1778 11.3702 35.1365 13.329 35.1365 15.7452V33.9623C35.1365 36.3785 33.1778 38.3373 30.7615 38.3373H5C2.58375 38.3373 0.625 36.3785 0.625 33.9623V16.6202C0.625 13.7207 2.97551 11.3702 5.875 11.3702H12.875V5.375C12.875 2.47551 15.2255 0.125 18.125 0.125ZM33.3865 15.7452C33.3865 14.2955 32.2113 13.1202 30.7615 13.1202H5.875C3.942 13.1202 2.375 14.6872 2.375 16.6202V33.9623C2.375 35.412 3.55025 36.5873 5 36.5873H30.7615C32.2113 36.5873 33.3865 35.412 33.3865 33.9623V15.7452ZM21.625 22.875C21.625 24.1997 20.889 25.3526 19.8037 25.9469L20.75 31.625H15.5L16.4463 25.9469C15.361 25.3526 14.625 24.1997 14.625 22.875C14.625 20.942 16.192 19.375 18.125 19.375C20.058 19.375 21.625 20.942 21.625 22.875Z" fill="#E9271D"/>
</svg>
