<svg width="41" height="30" viewBox="0 0 41 30" fill="none" xmlns="http://www.w3.org/2000/svg">
<path d="M35.6898 2.0188L35.2369 0.32843L22.4143 3.76422C21.9411 3.07616 21.1482 2.62502 20.25 2.62502C18.8691 2.62502 17.7373 3.69129 17.6329 5.04541L4.8102 8.48123L5.26314 10.1716L18.0857 6.73581C18.3973 7.18885 18.8474 7.53918 19.375 7.72565V24.5H15.875V26.25H24.625V24.5H21.125V7.72565C22.0831 7.387 22.7859 6.50789 22.8671 5.45462L35.6898 2.0188Z" fill="#E9271D"/>
<path fill-rule="evenodd" clip-rule="evenodd" d="M29.875 7.87502C29.875 10.7745 32.2255 13.125 35.125 13.125C38.0245 13.125 40.375 10.7745 40.375 7.87502V6.12502H29.875V7.87502ZM31.625 7.87502C31.625 9.80802 33.192 11.375 35.125 11.375C37.058 11.375 38.625 9.80802 38.625 7.87502H31.625Z" fill="#E9271D"/>
<path fill-rule="evenodd" clip-rule="evenodd" d="M0.125 14.875C0.125 17.7745 2.47551 20.125 5.375 20.125C8.2745 20.125 10.625 17.7745 10.625 14.875V13.125H0.125V14.875ZM5.375 18.375C3.442 18.375 1.875 16.808 1.875 14.875H8.875C8.875 16.808 7.308 18.375 5.375 18.375Z" fill="#E9271D"/>
<path d="M28.125 28V29.75H12.375V28H28.125Z" fill="#E9271D"/>
</svg>
