<svg width="44" height="51" viewBox="0 0 44 51" fill="none" xmlns="http://www.w3.org/2000/svg">
<path d="M10.5109 47.6422L7.23074 50.3083L6.15087 48.9312L9.431 46.2651C10.5094 45.4195 11.8402 44.9599 13.2106 44.9599H29.3513C30.6311 44.9599 31.8468 44.3995 32.678 43.4264L41.4984 33.0998C41.848 32.6906 41.7996 32.0754 41.3904 31.7258L41.3127 31.666C40.6756 31.2242 39.8156 31.2915 39.255 31.827L31.6327 39.1064C30.9815 39.7283 30.0432 40.125 29.1428 40.125H13.2327V38.375H23.4377C24.1626 38.375 24.7502 37.7874 24.7502 37.0625C24.7502 36.3376 24.1626 35.75 23.4377 35.75H13.6036C10.8479 35.75 8.18598 36.7503 6.11231 38.5651L1.74235 42.3896L0.589844 41.0727L4.9598 37.2482C7.3525 35.1542 10.424 34 13.6036 34H23.4377C25.1291 34 26.5002 35.3711 26.5002 37.0625C26.5002 37.5322 26.3944 37.9772 26.2055 38.375H29.1428C29.593 38.375 30.0985 38.1518 30.424 37.8409L38.0463 30.5614C39.208 29.4519 40.9898 29.3126 42.3099 30.2279C42.385 30.2799 42.4574 30.3358 42.527 30.3952C43.6711 31.3725 43.8064 33.0923 42.8291 34.2364L34.0086 44.563C32.8449 45.9254 31.143 46.7099 29.3513 46.7099H13.2106C12.2317 46.7099 11.2811 47.0382 10.5109 47.6422Z" fill="#E9271D"/>
<path fill-rule="evenodd" clip-rule="evenodd" d="M23.967 0.75C25.3046 0.75 26.4283 1.75573 26.5759 3.08484L26.8785 5.80381C28.1366 6.26008 29.3017 6.93534 30.3224 7.79468L32.8299 6.69584C34.0551 6.15907 35.4879 6.62933 36.1567 7.78769L37.1235 9.46231C37.7923 10.6207 37.4831 12.0967 36.4059 12.8892L34.2016 14.5111C34.3167 15.1632 34.3752 15.828 34.3752 16.5C34.3752 17.172 34.3167 17.8369 34.2016 18.4891L36.4057 20.1107C37.4831 20.9033 37.7923 22.3793 37.1235 23.5377L36.1567 25.2123C35.4879 26.3707 34.0551 26.8409 32.8299 26.3042L30.3222 25.2054C29.3015 26.0647 28.1365 26.74 26.8785 27.1962L26.576 29.9149C26.4283 31.2443 25.3046 32.25 23.967 32.25H22.0334C20.6958 32.25 19.5721 31.2443 19.4244 29.9152L19.1219 27.1962C17.8638 26.7399 16.6987 26.0647 15.678 25.2053L13.1705 26.3042C11.9453 26.8409 10.5125 26.3707 9.84371 25.2123L8.87687 23.5377C8.20809 22.3793 8.51724 20.9033 9.59452 20.1108L11.7988 18.4889C11.6837 17.8368 11.6252 17.172 11.6252 16.5C11.6252 15.828 11.6837 15.1632 11.7988 14.5111L9.59467 12.8893C8.51724 12.0967 8.20809 10.6207 8.87687 9.46231L9.84371 7.78769C10.5125 6.62933 11.9453 6.15907 13.1706 6.69589L15.678 7.79468C16.6987 6.93534 17.8638 6.26008 19.1219 5.80381L19.4244 3.08512C19.5721 1.75573 20.6958 0.75 22.0334 0.75H23.967ZM23.967 2.5H22.0334C21.5875 2.5 21.2129 2.83524 21.1637 3.27837L20.7336 7.1434C18.9082 7.58402 17.2857 8.54494 16.0319 9.86041L12.4682 8.29874C12.0598 8.11982 11.5822 8.27657 11.3593 8.66269L10.3924 10.3373C10.1695 10.7234 10.2725 11.2154 10.6317 11.4796L13.7637 13.7842C13.5108 14.6455 13.3752 15.5569 13.3752 16.5C13.3752 17.4431 13.5108 18.3545 13.7637 19.2158L10.6317 21.5204C10.2725 21.7846 10.1695 22.2766 10.3924 22.6627L11.3593 24.3373C11.5822 24.7234 12.0598 24.8802 12.4682 24.7013L16.0319 23.1396C17.2857 24.4551 18.9082 25.416 20.7336 25.8566L21.1637 29.7216C21.2129 30.1648 21.5875 30.5 22.0334 30.5H23.967C24.4129 30.5 24.7874 30.1648 24.8367 29.7216L25.2667 25.8566C27.0921 25.416 28.7145 24.4552 29.9683 23.1398L33.5322 24.7013C33.9406 24.8802 34.4182 24.7234 34.6411 24.3373L35.608 22.6627C35.8309 22.2766 35.7278 21.7846 35.3687 21.5204L32.2367 19.216C32.4895 18.3546 32.6252 17.4432 32.6252 16.5C32.6252 15.5569 32.4895 14.6455 32.2367 13.7842L35.3687 11.4796C35.7278 11.2154 35.8309 10.7234 35.608 10.3373L34.6411 8.66269C34.4182 8.27657 33.9406 8.11982 33.5322 8.29874L29.9685 9.86041C28.7147 8.54494 27.0922 7.58402 25.2668 7.1434L24.8367 3.27837C24.7874 2.83524 24.4129 2.5 23.967 2.5ZM23.0002 10.375C26.3829 10.375 29.1252 13.1173 29.1252 16.5C29.1252 19.8827 26.3829 22.625 23.0002 22.625C19.6174 22.625 16.8752 19.8827 16.8752 16.5C16.8752 13.1173 19.6174 10.375 23.0002 10.375ZM23.0002 12.125C20.5839 12.125 18.6252 14.0838 18.6252 16.5C18.6252 18.9162 20.5839 20.875 23.0002 20.875C25.4164 20.875 27.3752 18.9162 27.3752 16.5C27.3752 14.0838 25.4164 12.125 23.0002 12.125Z" fill="#E9271D"/>
</svg>
