<svg width="29" height="47" viewBox="0 0 29 47" fill="none" xmlns="http://www.w3.org/2000/svg">
<path d="M12.3125 21.5135H10.5625V5.375C10.5625 4.4085 9.77899 3.625 8.81249 3.625C7.84599 3.625 7.06249 4.4085 7.06249 5.375V27.4214C7.14126 27.4578 7.22639 27.4828 7.31582 27.4945C11.4252 28.0315 13.625 30.1928 13.625 33.8125H11.875C11.875 31.1316 10.3765 29.6594 7.08907 29.2298C5.92482 29.0776 5.0032 28.1708 4.83219 27.0092L4.0149 21.4578C3.95169 21.0284 3.58326 20.7102 3.14923 20.7102H3.02083C2.56814 20.7102 2.19551 21.0662 2.17491 21.5185C1.85397 28.5602 1.98368 32.9156 2.51699 34.3898C2.89208 35.4267 3.46639 35.9198 5.04333 36.7855L5.35373 36.9569C6.46228 37.5753 6.99473 37.9548 7.54646 38.6079C8.71657 39.9932 9.24999 42.6038 9.24999 46.4989H7.49999C7.49999 42.9885 7.03543 40.7149 6.20958 39.7372C5.85719 39.32 5.47647 39.0382 4.66941 38.5799L3.7423 38.0618C2.13871 37.1369 1.38654 36.4093 0.871356 34.9851C0.266345 33.3127 0.112045 29.2966 0.369706 22.7763L0.42672 21.4388C0.48991 20.052 1.63262 18.9602 3.02083 18.9602H3.14923C4.03839 18.9602 4.83578 19.4053 5.31249 20.0978V5.375C5.31249 3.442 6.87949 1.875 8.81249 1.875C9.5329 1.875 10.2025 2.09265 10.759 2.46578C11.2374 1.1025 12.5358 0.125 14.0625 0.125C15.5892 0.125 16.8876 1.1025 17.366 2.46578C17.9225 2.09265 18.5921 1.875 19.3125 1.875C21.2455 1.875 22.8125 3.442 22.8125 5.375L22.8176 5.75906C23.3772 5.37946 24.0526 5.15769 24.7798 5.15769C26.7128 5.15769 28.2798 6.72469 28.2798 8.65769L28.2798 21.7794C28.3217 32.8125 27.6263 38.5658 25.8031 39.7844L25.668 39.8785C24.1663 40.9702 23.6422 42.9146 23.6422 46.7191H21.8922C21.8922 42.2647 22.5877 39.8286 24.8306 38.3294C25.7755 37.6979 26.4366 32.8916 26.5219 24.4652L26.5305 23.1518L26.5298 8.65769C26.5298 7.69119 25.7463 6.90769 24.7798 6.90769C23.8133 6.90769 23.0298 7.69119 23.0298 8.65769V21.5332H23.026L23.026 21.5343H21.276L21.0625 5.375C21.0625 4.4085 20.279 3.625 19.3125 3.625C18.346 3.625 17.5625 4.4085 17.5625 5.375V21.5343H15.8125V3.625C15.8125 2.6585 15.029 1.875 14.0625 1.875C13.096 1.875 12.3125 2.6585 12.3125 3.625L12.3125 21.5135Z" fill="#E9271D"/>
</svg>
