<svg width="64" height="64" viewBox="0 0 64 64" fill="none" xmlns="http://www.w3.org/2000/svg">
<path fill-rule="evenodd" clip-rule="evenodd" d="M63.25 32C63.25 49.2589 49.2589 63.25 32 63.25C14.7411 63.25 0.75 49.2589 0.75 32C0.75 14.7411 14.7411 0.75 32 0.75C49.2589 0.75 63.25 14.7411 63.25 32ZM3.25 32C3.25 47.8782 16.1218 60.75 32 60.75C47.8782 60.75 60.75 47.8782 60.75 32C60.75 16.1218 47.8782 3.25 32 3.25C16.1218 3.25 3.25 16.1218 3.25 32Z" fill="#E9271D"/>
<path d="M30.8985 37C30.8052 37 30.7212 36.9673 30.6465 36.902C30.5812 36.8273 30.5485 36.7433 30.5485 36.65V29.986L28.6305 31.456C28.5652 31.512 28.4952 31.54 28.4205 31.54C28.3178 31.54 28.2245 31.484 28.1405 31.372L27.3145 30.294C27.2678 30.2193 27.2445 30.1493 27.2445 30.084C27.2445 29.9533 27.3005 29.8553 27.4125 29.79L30.6325 27.298C30.7352 27.2327 30.8472 27.2 30.9685 27.2H32.7185C32.8212 27.2 32.9052 27.2327 32.9705 27.298C33.0358 27.3633 33.0685 27.4473 33.0685 27.55V36.65C33.0685 36.7433 33.0358 36.8273 32.9705 36.902C32.9052 36.9673 32.8212 37 32.7185 37H30.8985Z" fill="#E9271D"/>
</svg>
