<svg width="51" height="51" viewBox="0 0 51 51" fill="none" xmlns="http://www.w3.org/2000/svg">
<path d="M50.1549 27.428C49.753 32.021 48.0889 36.4134 45.3464 40.1197C42.604 43.8259 38.89 46.7015 34.6152 48.4287C30.3403 50.1558 25.6711 50.6672 21.1238 49.9062C16.5765 49.1453 12.3282 47.1416 8.84853 44.1168C5.36889 41.092 2.7935 37.1639 1.40708 32.7667C0.0206559 28.3696 -0.122787 23.6747 0.992607 19.2011C2.108 14.7275 4.43878 10.6494 7.72727 7.41784C11.0157 4.18626 15.1338 1.927 19.6262 0.889849L20.1886 3.32577C16.1454 4.25921 12.4392 6.29254 9.47954 9.20097C6.51991 12.1094 4.4222 15.7796 3.41835 19.8059C2.41449 23.8321 2.54359 28.0575 3.79137 32.015C5.03915 35.9724 7.357 39.5078 10.4887 42.2301C13.6203 44.9524 17.4438 46.7557 21.5364 47.4405C25.629 48.1254 29.8313 47.6652 33.6786 46.1107C37.526 44.5563 40.8686 41.9682 43.3368 38.6326C45.805 35.297 47.3027 31.3438 47.6644 27.2101L50.1549 27.428Z" fill="#E9271D"/>
<path d="M29.5912 0.628906C33.7382 1.36013 37.6333 3.12703 40.9151 5.76565C44.1969 8.40427 46.759 11.8291 48.3637 15.7223L25.25 25.2491L29.5912 0.628906Z" fill="#E9271D"/>
</svg>
