<svg width="64" height="64" viewBox="0 0 64 64" fill="none" xmlns="http://www.w3.org/2000/svg">
<path fill-rule="evenodd" clip-rule="evenodd" d="M63.25 32C63.25 49.2589 49.2589 63.25 32 63.25C14.7411 63.25 0.75 49.2589 0.75 32C0.75 14.7411 14.7411 0.75 32 0.75C49.2589 0.75 63.25 14.7411 63.25 32ZM3.25 32C3.25 47.8782 16.1218 60.75 32 60.75C47.8782 60.75 60.75 47.8782 60.75 32C60.75 16.1218 47.8782 3.25 32 3.25C16.1218 3.25 3.25 16.1218 3.25 32Z" fill="#E9271D"/>
<path d="M14.755 37.14C13.8497 37.14 13.089 37 12.473 36.72C11.8663 36.44 11.4137 36.0947 11.115 35.684C10.8257 35.264 10.6717 34.844 10.653 34.424C10.653 34.34 10.681 34.27 10.737 34.214C10.8023 34.158 10.877 34.13 10.961 34.13H12.795C12.8977 34.13 12.9817 34.1487 13.047 34.186C13.1123 34.2233 13.173 34.2933 13.229 34.396C13.4157 34.8813 13.9243 35.124 14.755 35.124C15.231 35.124 15.5997 35.0167 15.861 34.802C16.1317 34.578 16.267 34.2747 16.267 33.892C16.267 33.1453 15.7817 32.772 14.811 32.772H13.257C13.1637 32.772 13.0797 32.7393 13.005 32.674C12.9397 32.5993 12.907 32.5153 12.907 32.422V31.638C12.907 31.4327 12.9817 31.274 13.131 31.162L15.427 29.216H11.535C11.4417 29.216 11.3577 29.1833 11.283 29.118C11.2177 29.0433 11.185 28.9593 11.185 28.866V27.55C11.185 27.4473 11.2177 27.3633 11.283 27.298C11.3577 27.2327 11.4417 27.2 11.535 27.2H17.975C18.0777 27.2 18.1617 27.2327 18.227 27.298C18.3017 27.3633 18.339 27.4473 18.339 27.55V28.74C18.339 28.9173 18.2643 29.0713 18.115 29.202L15.987 31.176L16.085 31.204C16.9437 31.316 17.6203 31.6053 18.115 32.072C18.619 32.5293 18.871 33.1873 18.871 34.046C18.871 34.6713 18.6937 35.2173 18.339 35.684C17.9843 36.1507 17.4943 36.51 16.869 36.762C16.2437 37.014 15.539 37.14 14.755 37.14Z" fill="#E9271D"/>
<path d="M21.8615 33.808C21.7588 33.808 21.6748 33.7753 21.6095 33.71C21.5442 33.6447 21.5115 33.5607 21.5115 33.458V32.142C21.5115 32.0393 21.5442 31.9553 21.6095 31.89C21.6748 31.8247 21.7588 31.792 21.8615 31.792H26.2435C26.3462 31.792 26.4302 31.8247 26.4955 31.89C26.5702 31.9553 26.6075 32.0393 26.6075 32.142V33.458C26.6075 33.5607 26.5702 33.6447 26.4955 33.71C26.4302 33.7753 26.3462 33.808 26.2435 33.808H21.8615Z" fill="#E9271D"/>
<path d="M34.1114 37C34.0181 37 33.9341 36.9673 33.8594 36.902C33.7941 36.8273 33.7614 36.7433 33.7614 36.65V35.068H29.4074C29.3047 35.068 29.2207 35.0353 29.1554 34.97C29.0901 34.9047 29.0574 34.8207 29.0574 34.718V33.388C29.0574 33.248 29.1087 33.1033 29.2114 32.954L33.2854 27.438C33.4161 27.2793 33.5887 27.2 33.8034 27.2H35.8474C35.9501 27.2 36.0341 27.2327 36.0994 27.298C36.1647 27.3633 36.1974 27.4473 36.1974 27.55V32.982H37.4294C37.5414 32.982 37.6301 33.0193 37.6954 33.094C37.7607 33.1593 37.7934 33.2387 37.7934 33.332V34.718C37.7934 34.8207 37.7607 34.9047 37.6954 34.97C37.6301 35.0353 37.5461 35.068 37.4434 35.068H36.1974V36.65C36.1974 36.7433 36.1647 36.8273 36.0994 36.902C36.0341 36.9673 35.9501 37 35.8474 37H34.1114ZM33.8174 33.08V29.776L31.4654 33.08H33.8174Z" fill="#E9271D"/>
<path d="M42.19 32.142C41.5554 32.142 41.0467 31.9787 40.664 31.652C40.2814 31.316 40.0714 30.868 40.034 30.308C40.0154 30.028 40.006 29.832 40.006 29.72C40.006 29.608 40.0154 29.3653 40.034 28.992C40.062 28.4227 40.2627 27.97 40.636 27.634C41.0094 27.298 41.5274 27.13 42.19 27.13C42.8434 27.13 43.3567 27.298 43.73 27.634C44.1034 27.97 44.304 28.4227 44.332 28.992C44.3507 29.3653 44.36 29.608 44.36 29.72C44.36 29.832 44.3507 30.028 44.332 30.308C44.2947 30.868 44.0847 31.316 43.702 31.652C43.3194 31.9787 42.8154 32.142 42.19 32.142ZM41.07 37C40.9767 37 40.8974 36.9767 40.832 36.93C40.776 36.874 40.748 36.804 40.748 36.72C40.748 36.664 40.7667 36.6127 40.804 36.566L47.72 27.466C47.7947 27.3727 47.8647 27.3073 47.93 27.27C47.9954 27.2233 48.0887 27.2 48.21 27.2H49.204C49.2974 27.2 49.372 27.228 49.428 27.284C49.4934 27.3307 49.526 27.396 49.526 27.48C49.526 27.536 49.5074 27.5873 49.47 27.634L42.554 36.734C42.4794 36.8273 42.4094 36.8973 42.344 36.944C42.2787 36.9813 42.1854 37 42.064 37H41.07ZM42.19 30.924C42.582 30.924 42.7967 30.6953 42.834 30.238C42.8527 29.9393 42.862 29.7433 42.862 29.65C42.862 29.5287 42.8527 29.3373 42.834 29.076C42.8247 28.8707 42.764 28.7027 42.652 28.572C42.5494 28.4413 42.3954 28.376 42.19 28.376C41.9754 28.376 41.8167 28.4413 41.714 28.572C41.6114 28.7027 41.5507 28.8707 41.532 29.076C41.5227 29.2067 41.518 29.398 41.518 29.65C41.518 29.8927 41.5227 30.0887 41.532 30.238C41.5694 30.6953 41.7887 30.924 42.19 30.924ZM48.112 37.07C47.4774 37.07 46.9687 36.9067 46.586 36.58C46.2127 36.244 46.0027 35.7913 45.956 35.222C45.9467 35.0633 45.942 34.8487 45.942 34.578C45.942 34.298 45.9467 34.074 45.956 33.906C45.9934 33.3273 46.194 32.87 46.558 32.534C46.9314 32.198 47.4494 32.03 48.112 32.03C48.7747 32.03 49.288 32.198 49.652 32.534C50.0254 32.87 50.2307 33.3273 50.268 33.906C50.2867 34.2793 50.296 34.522 50.296 34.634C50.296 34.746 50.2867 34.942 50.268 35.222C50.2307 35.782 50.0207 36.23 49.638 36.566C49.2554 36.902 48.7467 37.07 48.112 37.07ZM48.112 35.838C48.3267 35.838 48.4854 35.7727 48.588 35.642C48.6907 35.502 48.7514 35.334 48.77 35.138C48.7887 34.858 48.798 34.662 48.798 34.55C48.798 34.4287 48.7887 34.2373 48.77 33.976C48.7514 33.78 48.6907 33.6167 48.588 33.486C48.4854 33.346 48.3267 33.276 48.112 33.276C47.8974 33.276 47.7387 33.346 47.636 33.486C47.5334 33.6167 47.4774 33.78 47.468 33.976C47.4587 34.1067 47.454 34.298 47.454 34.55C47.454 34.802 47.4587 34.998 47.468 35.138C47.4867 35.3433 47.5427 35.5113 47.636 35.642C47.7387 35.7727 47.8974 35.838 48.112 35.838Z" fill="#E9271D"/>
</svg>
